<?xml version="1.0" encoding="UTF-8"?>
<svg width="24" height="24" version="1.1" viewBox="0 0 24 24" xml:space="preserve" xmlns="http://www.w3.org/2000/svg" xmlns:cc="http://creativecommons.org/ns#" xmlns:dc="http://purl.org/dc/elements/1.1/" xmlns:rdf="http://www.w3.org/1999/02/22-rdf-syntax-ns#"><metadata><rdf:RDF><cc:Work rdf:about=""><dc:format>image/svg+xml</dc:format><dc:type rdf:resource="http://purl.org/dc/dcmitype/StillImage"/></cc:Work></rdf:RDF></metadata><defs><style>.cls-1{fill:#fff;}</style><style>.cls-1{fill:none;stroke:#000;stroke-linecap:square;stroke-miterlimit:10;stroke-width:16px;}</style><style>.cls-1{fill:none;stroke:#000;stroke-linecap:square;stroke-miterlimit:10;stroke-width:16px;}</style></defs><path d="m16.5 0c-4.1291 0-7.5 3.3709-7.5 7.5 0 0.18889 0.007626 0.37508 0.021484 0.56055-2.8293 0.40512-5.0215 2.8521-5.0215 5.7891 0 0.084056 0.0062105 0.16678 0.0097656 0.25-2.2788 0.46331-4.0098 2.4908-4.0098 4.9004 0 2.7484 2.2516 5 5 5 2.5117 0 4.6067-1.8812 4.9492-4.3027 2.8002-0.047386 5.1348-2.0859 5.6445-4.7539 0.29745 0.036172 0.59935 0.056641 0.90625 0.056641 4.1291 0 7.5-3.3709 7.5-7.5 0-4.1291-3.3709-7.5-7.5-7.5zm0 2.1992c2.9401 0 5.3008 2.3606 5.3008 5.3008 0 2.9401-2.3606 5.3008-5.3008 5.3008-0.31134 0-0.61588-0.029251-0.91211-0.080078-0.43972-2.2273-2.1535-4.0078-4.3438-4.5488-0.027601-0.22035-0.044922-0.44371-0.044922-0.67188 0-2.9401 2.3606-5.3008 5.3008-5.3008zm-6.6504 8c2.0289 0 3.6504 1.6215 3.6504 3.6504s-1.6215 3.6504-3.6504 3.6504c-0.027598 0-0.054587-0.001356-0.082031-0.001953-0.5215-1.6423-1.8724-2.9241-3.5547-3.3477-0.0079745-0.09937-0.013672-0.19922-0.013672-0.30078 0-2.0289 1.6215-3.6504 3.6504-3.6504zm-4.8496 6c1.5594 0 2.8008 1.2414 2.8008 2.8008 0 1.5594-1.2414 2.8008-2.8008 2.8008s-2.8008-1.2414-2.8008-2.8008c0-1.5594 1.2414-2.8008 2.8008-2.8008z" color="#000000" fill="#fff" style="-inkscape-stroke:none"/></svg>
