<?xml version="1.0" encoding="UTF-8"?>
<svg width="24" height="24" version="1.1" viewBox="0 0 24 24" xml:space="preserve" xmlns="http://www.w3.org/2000/svg" xmlns:cc="http://creativecommons.org/ns#" xmlns:dc="http://purl.org/dc/elements/1.1/" xmlns:rdf="http://www.w3.org/1999/02/22-rdf-syntax-ns#"><metadata><rdf:RDF><cc:Work rdf:about=""><dc:format>image/svg+xml</dc:format><dc:type rdf:resource="http://purl.org/dc/dcmitype/StillImage"/></cc:Work></rdf:RDF></metadata><defs><style>.cls-1{fill:#fff;}</style><style>.cls-1{fill:none;stroke:#000;stroke-linecap:square;stroke-miterlimit:10;stroke-width:16px;}</style><style>.cls-1{fill:none;stroke:#000;stroke-linecap:square;stroke-miterlimit:10;stroke-width:16px;}</style><style>.cls-1{fill:#fff;}</style><style>.cls-1{fill:none;stroke:#000;stroke-linecap:square;stroke-miterlimit:10;stroke-width:16px;}</style><style>.cls-1{fill:none;stroke:#000;stroke-linecap:square;stroke-miterlimit:10;stroke-width:16px;}</style><style>.cls-1{fill:#fff;}</style><style>.cls-1{fill:none;stroke:#000;stroke-linecap:square;stroke-miterlimit:10;stroke-width:16px;}</style><style>.cls-1{fill:none;stroke:#000;stroke-linecap:square;stroke-miterlimit:10;stroke-width:16px;}</style><style>.cls-1{fill:#fff;}</style><style>.cls-1{fill:none;stroke:#000;stroke-linecap:square;stroke-miterlimit:10;stroke-width:16px;}</style><style>.cls-1{fill:none;stroke:#000;stroke-linecap:square;stroke-miterlimit:10;stroke-width:16px;}</style><style>.cls-1{fill:#fff;}</style><style>.cls-1{fill:none;stroke:#000;stroke-linecap:square;stroke-miterlimit:10;stroke-width:16px;}</style><style>.cls-1{fill:none;stroke:#000;stroke-linecap:square;stroke-miterlimit:10;stroke-width:16px;}</style></defs><path d="m9.25 1c-0.75939 0-1.375 0.61561-1.375 1.375v2.75c0 0.75939 0.61561 1.375 1.375 1.375 0.75939 0 1.375-0.61561 1.375-1.375v-2.75c0-0.75939-0.61561-1.375-1.375-1.375zm11 0c-0.75939 0-1.375 0.61561-1.375 1.375v2.75c0 0.75939 0.61561 1.375 1.375 1.375 0.75939 0 1.375-0.61561 1.375-1.375v-2.75c0-0.75939-0.61561-1.375-1.375-1.375zm-17.875 1.375c-0.75939 0-1.375 0.61561-1.375 1.375s0.61561 1.375 1.375 1.375h2.75c0.75939 0 1.375-0.61561 1.375-1.375s-0.61561-1.375-1.375-1.375zm11 0c-0.75939 0-1.375 0.61561-1.375 1.375s0.61561 1.375 1.375 1.375h2.75c0.75939 0 1.375-0.61561 1.375-1.375s-0.61561-1.375-1.375-1.375zm-9.625 4.125c-0.75939 0-1.375 0.61561-1.375 1.375v2.75c0 0.75939 0.61561 1.375 1.375 1.375s1.375-0.61561 1.375-1.375v-2.75c0-0.75939-0.61561-1.375-1.375-1.375zm11 0c-0.75939 0-1.375 0.61561-1.375 1.375v2.75c0 0.75939 0.61561 1.375 1.375 1.375s1.375-0.61561 1.375-1.375v-2.75c0-0.75939-0.61561-1.375-1.375-1.375zm-6.875 1.375c-0.75939 0-1.375 0.61561-1.375 1.375s0.61561 1.375 1.375 1.375h2.75c0.75939 0 1.375-0.61561 1.375-1.375s-0.61561-1.375-1.375-1.375zm11 0c-0.75939 0-1.375 0.61561-1.375 1.375s0.61561 1.375 1.375 1.375h2.75c0.75939 0 1.375-0.61561 1.375-1.375s-0.61561-1.375-1.375-1.375zm-9.625 4.125c-0.75939 0-1.375 0.61561-1.375 1.375v2.75c0 0.75939 0.61561 1.375 1.375 1.375 0.75939 0 1.375-0.61561 1.375-1.375v-2.75c0-0.75939-0.61561-1.375-1.375-1.375zm11 0c-0.75939 0-1.375 0.61561-1.375 1.375v2.75c0 0.75939 0.61561 1.375 1.375 1.375 0.75939 0 1.375-0.61561 1.375-1.375v-2.75c0-0.75939-0.61561-1.375-1.375-1.375zm-17.875 1.375c-0.75939 0-1.375 0.61561-1.375 1.375s0.61561 1.375 1.375 1.375h2.75c0.75939 0 1.375-0.61561 1.375-1.375s-0.61561-1.375-1.375-1.375zm11 0c-0.75939 0-1.375 0.61561-1.375 1.375s0.61561 1.375 1.375 1.375h2.75c0.75939 0 1.375-0.61561 1.375-1.375s-0.61561-1.375-1.375-1.375zm-9.625 4.125c-0.75939 0-1.375 0.61561-1.375 1.375v2.75c0 0.75939 0.61561 1.375 1.375 1.375s1.375-0.61561 1.375-1.375v-2.75c0-0.75939-0.61561-1.375-1.375-1.375zm11 0c-0.75939 0-1.375 0.61561-1.375 1.375v2.75c0 0.75939 0.61561 1.375 1.375 1.375s1.375-0.61561 1.375-1.375v-2.75c0-0.75939-0.61561-1.375-1.375-1.375zm-6.875 1.375c-0.75939 0-1.375 0.61561-1.375 1.375s0.61561 1.375 1.375 1.375h2.75c0.75939 0 1.375-0.61561 1.375-1.375s-0.61561-1.375-1.375-1.375zm11 0c-0.75939 0-1.375 0.61561-1.375 1.375s0.61561 1.375 1.375 1.375h2.75c0.75939 0 1.375-0.61561 1.375-1.375s-0.61561-1.375-1.375-1.375z" color="#000000" fill="#fff" stroke-linecap="round" stroke-linejoin="round" stroke-width=".6875" style="-inkscape-stroke:none"/></svg>
