<svg width="25" height="25" viewBox="0 0 25 25" fill="none" xmlns="http://www.w3.org/2000/svg">
<path fill-rule="evenodd" clip-rule="evenodd" d="M9.84729 21.1488H14.3228C17.4659 21.1488 19.038 21.1488 20.1669 20.4086C20.6542 20.0895 21.0737 19.6775 21.4016 19.1961C22.1559 18.0883 22.1559 16.5444 22.1559 13.4587C22.1559 10.373 22.1559 8.82913 21.4016 7.72133C21.0737 7.23994 20.6542 6.82791 20.1669 6.5088C19.4418 6.03245 18.5334 5.86225 17.1426 5.80183C16.479 5.80183 15.9079 5.30835 15.778 4.66885C15.6787 4.20042 15.4208 3.78064 15.0477 3.48044C14.6747 3.18024 14.2094 3.01804 13.7306 3.02126H10.4395C9.44445 3.02126 8.58742 3.71111 8.39205 4.66885C8.26213 5.30835 7.69111 5.80183 7.02744 5.80183C5.63766 5.86225 4.72927 6.03346 4.00316 6.5088C3.51627 6.82801 3.09705 7.24004 2.76948 7.72133C2.01416 8.82913 2.01416 10.372 2.01416 13.4587C2.01416 16.5454 2.01416 18.0873 2.76847 19.1961C3.09477 19.6755 3.51371 20.0874 4.00316 20.4086C5.1321 21.1488 6.70417 21.1488 9.84729 21.1488ZM12.085 9.33872C9.76773 9.33872 7.8885 11.1827 7.8885 13.4577C7.8885 15.7327 9.76874 17.5797 12.085 17.5797C14.4013 17.5797 16.2816 15.7347 16.2816 13.4597C16.2816 11.1847 14.4013 9.33872 12.085 9.33872ZM12.085 10.9863C10.6953 10.9863 9.56732 12.0931 9.56732 13.4587C9.56732 14.8233 10.6953 15.9301 12.085 15.9301C13.4748 15.9301 14.6028 14.8233 14.6028 13.4587C14.6028 12.0941 13.4748 10.9863 12.085 10.9863ZM16.8405 10.1625C16.8405 9.70731 17.2161 9.33872 17.6804 9.33872H18.7983C19.2615 9.33872 19.6382 9.70731 19.6382 10.1625C19.6361 10.383 19.5465 10.5936 19.3892 10.748C19.2319 10.9025 19.0197 10.9882 18.7993 10.9863H17.6804C17.5712 10.9874 17.4628 10.9669 17.3615 10.9261C17.2601 10.8853 17.1678 10.8249 17.0898 10.7484C17.0118 10.6719 16.9497 10.5808 16.9069 10.4802C16.8641 10.3797 16.8416 10.2718 16.8405 10.1625Z" fill="white"/>
</svg>
