<svg width="26" height="26" viewBox="0 0 26 26" fill="none" xmlns="http://www.w3.org/2000/svg">
<path d="M14.0834 4.33335H6.50004C5.9254 4.33335 5.3743 4.56163 4.96798 4.96796C4.56165 5.37428 4.33337 5.92538 4.33337 6.50002V19.5C4.33337 20.0747 4.56165 20.6258 4.96798 21.0321C5.3743 21.4384 5.9254 21.6667 6.50004 21.6667H14.0834M18.4167 4.33335H19.5C20.0747 4.33335 20.6258 4.56163 21.0321 4.96796C21.4384 5.37428 21.6667 5.92538 21.6667 6.50002V7.58335M21.6667 18.4167V19.5C21.6667 20.0747 21.4384 20.6258 21.0321 21.0321C20.6258 21.4384 20.0747 21.6667 19.5 21.6667H18.4167M21.6667 11.9167V14.0834M13 2.16669V23.8334" stroke="white" stroke-width="1.625" stroke-linecap="round" stroke-linejoin="round"/>
</svg>
