<svg width="28" height="28" viewBox="0 0 28 28" fill="none" xmlns="http://www.w3.org/2000/svg">
<path d="M14 18.1708C13.8445 18.1708 13.6986 18.1467 13.5625 18.0985C13.4264 18.0503 13.3 17.9674 13.1834 17.85L8.98335 13.65C8.75002 13.4167 8.63802 13.1444 8.64735 12.8333C8.65669 12.5222 8.76869 12.25 8.98335 12.0167C9.21669 11.7833 9.49396 11.662 9.81519 11.6527C10.1364 11.6433 10.4133 11.7549 10.6459 11.9875L12.8334 14.175V5.83333C12.8334 5.50277 12.9454 5.22588 13.1694 5.00266C13.3934 4.77944 13.6702 4.66744 14 4.66666C14.3298 4.66588 14.6071 4.77788 14.8319 5.00266C15.0566 5.22744 15.1682 5.50433 15.1667 5.83333V14.175L17.3542 11.9875C17.5875 11.7542 17.8648 11.6422 18.186 11.6515C18.5072 11.6608 18.7841 11.7825 19.0167 12.0167C19.2306 12.25 19.3426 12.5222 19.3527 12.8333C19.3628 13.1444 19.2508 13.4167 19.0167 13.65L14.8167 17.85C14.7 17.9667 14.5736 18.0495 14.4375 18.0985C14.3014 18.1475 14.1556 18.1716 14 18.1708ZM7.00002 23.3333C6.35835 23.3333 5.80924 23.105 5.35269 22.6485C4.89613 22.1919 4.66746 21.6424 4.66669 21V18.6667C4.66669 18.3361 4.77869 18.0592 5.00269 17.836C5.22669 17.6128 5.50358 17.5008 5.83335 17.5C6.16313 17.4992 6.44041 17.6112 6.66519 17.836C6.88996 18.0608 7.00158 18.3377 7.00002 18.6667V21H21V18.6667C21 18.3361 21.112 18.0592 21.336 17.836C21.56 17.6128 21.8369 17.5008 22.1667 17.5C22.4965 17.4992 22.7737 17.6112 22.9985 17.836C23.2233 18.0608 23.3349 18.3377 23.3334 18.6667V21C23.3334 21.6417 23.1051 22.1912 22.6485 22.6485C22.192 23.1058 21.6425 23.3341 21 23.3333H7.00002Z" fill="white"/>
</svg>
