<svg width="28" height="28" viewBox="0 0 28 28" fill="none" xmlns="http://www.w3.org/2000/svg">
<path d="M12.3247 15.9927C12.3347 15.9105 12.3272 15.8271 12.3028 15.748C12.2784 15.6689 12.2375 15.5958 12.1829 15.5336C12.1282 15.4713 12.0611 15.4213 11.9858 15.3869C11.9105 15.3524 11.8288 15.3342 11.746 15.3335H8.16667C8.06988 15.3325 7.97483 15.3076 7.8899 15.2612C7.80497 15.2148 7.73275 15.1482 7.67962 15.0672C7.62649 14.9863 7.59407 14.8936 7.58521 14.7972C7.57635 14.7008 7.59133 14.6037 7.62883 14.5145L12.187 3.86517C12.2302 3.75798 12.3043 3.66605 12.3998 3.60104C12.4954 3.53603 12.6081 3.50086 12.7237 3.5H17.9947C18.4065 3.5 18.6877 3.92 18.5372 4.30967L15.9413 10.9737C15.9057 11.0627 15.8923 11.1591 15.9023 11.2545C15.9123 11.3499 15.9453 11.4414 15.9986 11.5211C16.052 11.6009 16.1239 11.6664 16.2082 11.7121C16.2926 11.7578 16.3868 11.7822 16.4827 11.7833H19.8333C20.314 11.7833 20.5882 12.3422 20.2977 12.7318L11.5827 24.4522C11.5103 24.549 11.3598 24.4872 11.3727 24.3682L12.3247 15.9927Z" stroke="white" stroke-width="1.5" stroke-linecap="round" stroke-linejoin="round"/>
</svg>
