<?xml version="1.0" encoding="UTF-8"?>
<svg width="24" height="24" version="1.1" viewBox="0 0 24 24" xml:space="preserve" xmlns="http://www.w3.org/2000/svg" xmlns:cc="http://creativecommons.org/ns#" xmlns:dc="http://purl.org/dc/elements/1.1/" xmlns:rdf="http://www.w3.org/1999/02/22-rdf-syntax-ns#"><metadata><rdf:RDF><cc:Work rdf:about=""><dc:format>image/svg+xml</dc:format><dc:type rdf:resource="http://purl.org/dc/dcmitype/StillImage"/></cc:Work></rdf:RDF></metadata><defs><style>.cls-1{fill:#fff;}</style><style>.cls-1{fill:none;stroke:#000;stroke-linecap:square;stroke-miterlimit:10;stroke-width:16px;}</style><style>.cls-1{fill:none;stroke:#000;stroke-linecap:square;stroke-miterlimit:10;stroke-width:16px;}</style></defs><g fill="#fff"><path d="m10.139 4.2407a1.2848 1.2918 0 0 0-0.89479-1.59 1.2848 1.2918 0 0 0-1.5814 0.89963l-3.7089 13.448a1.2848 1.2918 0 0 0 0.89479 1.59 1.2848 1.2918 0 0 0 1.5814-0.89963z" color="#000000" stroke-width="0"/><path d="m20.046 7.0028a1.2848 1.2918 0 0 0-0.89479-1.59 1.2848 1.2918 0 0 0-1.5814 0.89963l-3.7089 13.448a1.2848 1.2918 0 0 0 0.89479 1.59 1.2848 1.2918 0 0 0 1.5814-0.89963z" color="#000000" stroke-width="0"/><path d="m4.1555 6.5947a1.2856 1.0327 15.867 0 0-0.96385-1.3408 1.2856 1.0327 15.867 0 0-1.513 0.65024l-1.6486 5.9777a1.2856 1.0327 15.867 0 0 0.96385 1.3408 1.2856 1.0327 15.867 0 0 1.513-0.65024z" color="#000000" stroke-linecap="round" style="-inkscape-stroke:none"/><path d="m23.97 12.119a1.2856 1.0327 15.867 0 0-0.96384-1.3408 1.2856 1.0327 15.867 0 0-1.513 0.65024l-1.6486 5.9777a1.2856 1.0327 15.867 0 0 0.96385 1.3408 1.2856 1.0327 15.867 0 0 1.513-0.65024z" color="#000000" stroke-linecap="round" style="-inkscape-stroke:none"/><path d="m16.191 1.6389a1.2864 1.2933 0 0 0-0.89588-1.5919 1.2864 1.2933 0 0 0-1.5833 0.90073l-5.9058 21.413a1.2864 1.2933 0 0 0 0.89588 1.5919 1.2864 1.2933 0 0 0 1.5833-0.90073z" color="#000000" stroke-width="0"/></g></svg>
